REM MD5 f05c65012852c4fc789f8ee7f2fe2f1e
FILE "Heroine Dream 2 (Japan).bin" BINARY
  TRACK 01 MODE2/2352
    INDEX 01 00:00:00
  TRACK 02 AUDIO
    INDEX 00 59:32:73
    INDEX 01 59:34:73
  TRACK 03 AUDIO
    INDEX 00 60:50:31
    INDEX 01 60:52:31
  TRACK 04 AUDIO
    INDEX 00 62:09:31
    INDEX 01 62:11:31
  TRACK 05 AUDIO
    INDEX 00 64:43:56
    INDEX 01 64:45:56
REM LEADOUT 67:45:56
